{"title":"Mars Needs Moms 2011 TS XviD Feel-Free","uid":6277419,"size":712173767,"categoryP":"video","categoryS":"movies","magnet":"?xt=urn:btih:176e8c63a021fce7249749acf2c1817a63e59f16&amp;dn=Mars+Needs+Moms+2011+TS+XviD+Feel-Free&amp;tr=udp%3A%2F%2Ftracker.openbittorrent.com%3A80&amp;tr=udp%3A%2F%2Fopen.demonii.com%3A1337&amp;tr=udp%3A%2F%2Ftracker.coppersurfer.tk%3A6969&amp;tr=udp%3A%2F%2Fexodus.desync.com%3A6969","seeders":1,"leechers":0,"uploader":"qwersd","files":9,"time":1301311673,"description":"Genre:Animation | Action | Adventure \nLanguage:English\nIMDb:http://www.imdb.com/title/tt1305591/\nSource:T0XiCiNK/IMAGINE.Thx\n\nFormat : AVI\nFormat/Info : Audio Video Interleave\nFile size : 677 MiB\nDuration : 1h 20mn\nOverall bit rate : 1 171 Kbps\n\nVideo\nID : 0\nFormat : MPEG-4 Visual\nFormat profile : Advanced Simple@L5\nFormat settings, BVOP : Yes\nFormat settings, QPel : No\nFormat settings, GMC : No warppoints\nFormat settings, Matrix : Default (H.263)\nMuxing mode : Packed bitstream\nCodec ID : XVID\nCodec ID/Hint : XviD\nDuration : 1h 20mn\nBit rate : 903 Kbps\nWidth : 692 pixels\nHeight : 354 pixels\nDisplay aspect ratio : 1.955\nFrame rate : 29.970 fps\nColor space : YUV\nChroma subsampling : 4:2:0\nBit depth : 8 bits\nScan type : Progressive\nBits/(Pixel*Frame) : 0.123\nStream size : 523 MiB (77%)\nWriting library : XviD 1.2.1 (UTC 2008-12-04)\n\nAudio\nID : 1\nFormat : MPEG Audio\nFormat version : Version 1\nFormat profile : Layer 3\nCodec ID : 55\nCodec ID/Hint : MP3\nDuration : 1h 20mn\nBit rate mode : Constant\nBit rate : 256 Kbps\nChannel(s) : 2 channels\nSampling rate : 44.1 KHz\nStream size : 148 MiB (22%)\nAlignment : Split accross interleaves\nInterleave, duration : 33 ms (1.00 video frame)\nInterleave, preload duration : 500 ms\n\n\nPlot:\nA young boy named Milo gains a deeper appreciation for his mom after Martians come to Earth to take her away\n &lt;a href=&quot;\nhttp://www.pix2links.com/images/18230638871267264700.png&quot; rel=&quot;nofollow&quot; target=&quot;_NEW&quot;&gt;\nhttp://www.pix2links.com/images/18230638871267264700.png&lt;/a&gt; &lt;a href=&quot;\nhttp://www.pix2links.com/images/81094721861764354240.png&quot; rel=&quot;nofollow&quot; target=&quot;_NEW&quot;&gt;\nhttp://www.pix2links.com/images/81094721861764354240.png&lt;/a&gt; &lt;a href=&quot;\nhttp://www.pix2links.com/images/50461944282964195706.png&quot; rel=&quot;nofollow&quot; target=&quot;_NEW&quot;&gt;\nhttp://www.pix2links.com/images/50461944282964195706.png&lt;/a&gt; &lt;a href=&quot;\nhttp://www.pix2links.com/images/57953580998701697708.png&quot; rel=&quot;nofollow&quot; target=&quot;_NEW&quot;&gt;\nhttp://www.pix2links.com/images/57953580998701697708.png&lt;/a&gt; &lt;a href=&quot;\nhttp://www.pix2links.com/images/05863053150569595713.png&quot; rel=&quot;nofollow&quot; target=&quot;_NEW&quot;&gt;\nhttp://www.pix2links.com/images/05863053150569595713.png&lt;/a&gt;\n\nGreets:\n\nINK,CRYS,IMAGINE,LKRG,FXG,3Li,FLAWL3SS,TA,iLLUSiON,ViSiON,DTRG SAFCuk009,LU,TheFalcon007,MYSTiC,PrisM,Noir,WBZ,LAP,Rx,Kingdom,SAFCuk009+Fabreezy,HDLiTE,TWiZTED,ExtraTorrentRG.ELEKTRI4KA,MAGNAT,CM8\nAnd to all the other p2p grps past and present","torrent":{"xt":"urn:btih:176e8c63a021fce7249749acf2c1817a63e59f16","amp;dn":"Mars+Needs+Moms+2011+TS+XviD+Feel-Free","amp;tr":["udp%3A%2F%2Ftracker.openbittorrent.com%3A80","udp%3A%2F%2Fopen.demonii.com%3A1337","udp%3A%2F%2Ftracker.coppersurfer.tk%3A6969","udp%3A%2F%2Fexodus.desync.com%3A6969"],"infoHash":"176e8c63a021fce7249749acf2c1817a63e59f16","infoHashBuffer":{"type":"Buffer","data":[23,110,140,99,160,33,252,231,36,151,73,172,242,193,129,122,99,229,159,22]},"announce":[],"urlList":[]}}